<?xml version="1.0" encoding="UTF-8" standalone="no"?>
<svg width="139px" height="79px" viewBox="0 0 139 79" version="1.1" xmlns="http://www.w3.org/2000/svg" xmlns:xlink="http://www.w3.org/1999/xlink" xmlns:sketch="http://www.bohemiancoding.com/sketch/ns">
    <!-- Generator: Sketch 3.4.4 (17249) - http://www.bohemiancoding.com/sketch -->
    <title>Logo</title>
    <defs></defs>
    <g id="Page-1" stroke="none" stroke-width="1" fill="none" fill-rule="evenodd" sketch:type="MSPage">
        <path d="M2.136,60.154 C2.136,60.154 2.791,61.892 3.478,63.693 C4.165,65.522 4.894,67.426 4.894,67.426 C5.403,68.744 6.792,68.205 8.017,66.173 C8.017,66.173 8.694,65.069 9.868,63.216 C11.045,61.385 12.762,58.798 14.805,55.817 C15.83,54.327 16.963,52.755 18.168,51.14 C19.365,49.501 20.643,47.831 21.941,46.172 C23.245,44.517 24.588,42.849 25.928,41.251 C27.271,39.66 28.595,38.117 29.888,36.677 C31.166,35.234 32.398,33.905 33.506,32.711 C34.621,31.534 35.621,30.473 36.474,29.61 C38.168,27.877 39.201,26.858 39.201,26.858 C41.154,24.973 42.028,22.853 41.161,22.114 C41.161,22.114 39.917,21.024 38.728,20.016 C37.542,19.002 36.413,18.032 36.413,18.032 C35.673,17.389 33.682,18.234 31.958,19.9 C31.958,19.9 31.039,20.799 29.536,22.338 C28.038,23.876 25.968,26.055 23.662,28.589 C22.509,29.859 21.314,31.218 20.103,32.631 C18.895,34.037 17.677,35.499 16.489,36.959 C15.291,38.432 14.126,39.917 13.023,41.364 C11.91,42.802 10.864,44.207 9.91,45.536 C7.99,48.177 6.382,50.489 5.26,52.148 C4.141,53.808 3.49,54.789 3.49,54.789 C2.306,56.636 1.714,59.01 2.136,60.154" id="Fill-20" fill="#EE9951" sketch:type="MSShapeGroup"></path>
        <path d="M56.881,76.328 C56.881,76.328 57.743,75.323 59.081,73.772 C60.426,72.231 62.239,70.199 64.114,68.164 C65.988,66.137 67.908,64.128 69.353,62.654 C70.806,61.156 71.795,60.178 71.795,60.178 C73.128,58.885 73.964,57.362 74.205,55.952 C74.451,54.539 74.135,53.237 73.177,52.398 C73.177,52.398 72.205,51.526 70.646,50.124 C69.088,48.759 67.023,46.928 64.833,44.985 C63.728,44.006 62.636,43.059 61.543,42.087 C60.455,41.139 59.378,40.196 58.361,39.315 C56.338,37.546 54.459,35.901 52.94,34.591 C49.909,31.956 47.863,30.181 47.863,30.181 C46.946,29.384 44.705,30.221 42.831,32.043 C42.831,32.043 40.093,34.795 37.453,37.635 C34.81,40.439 32.268,43.349 32.268,43.349 C30.604,45.291 29.826,47.71 30.508,48.763 C30.508,48.763 32.042,51.14 34.328,54.619 C35.466,56.379 36.886,58.524 38.438,60.838 C39.221,61.999 40.044,63.209 40.876,64.449 C41.72,65.667 42.571,66.92 43.431,68.164 C45.146,70.616 46.761,72.937 47.989,74.655 C49.227,76.4 50.015,77.493 50.015,77.493 C51.533,79.562 54.602,79.099 56.881,76.328" id="Fill-21" fill="#EE9951" sketch:type="MSShapeGroup"></path>
        <path d="M72.437,20.621 C75.924,18.016 79.394,15.606 79.394,15.606 C81.694,14.055 82.224,12.167 80.625,11.364 C80.625,11.364 79.801,10.962 78.46,10.295 C77.133,9.64 75.323,8.757 73.354,7.814 C71.384,6.873 69.328,5.9 67.393,4.993 C65.464,4.08 63.649,3.241 62.15,2.542 C59.133,1.143 57.037,0.174 57.037,0.174 C56.104,-0.262 53.944,0.399 52.213,1.683 C52.213,1.683 49.629,3.659 47.086,5.724 C44.52,7.78 41.989,9.921 41.989,9.921 C40.307,11.397 39.537,13.052 40.269,13.618 C40.269,13.618 41.913,14.854 44.263,16.627 C45.443,17.525 46.865,18.602 48.38,19.744 C49.903,20.892 51.533,22.126 53.105,23.319 C56.261,25.705 58.892,27.721 58.892,27.721 C60.19,28.703 63.151,27.926 65.472,26.001 C65.472,26.001 66.344,25.304 67.658,24.278 C68.952,23.247 70.695,21.909 72.437,20.621" id="Fill-22" fill="#EE9951" sketch:type="MSShapeGroup"></path>
        <path d="M137.009,7.98 C137.009,7.98 133.573,6.11 130.268,4.395 C126.949,2.682 123.767,1.126 123.767,1.126 C121.687,0.14 118.382,0.124 116.319,1.081 C116.319,1.081 115.187,1.628 113.269,2.555 C111.346,3.49 108.583,4.906 105.345,6.62 C103.724,7.484 101.947,8.444 100.1,9.504 C98.242,10.552 96.316,11.694 94.347,12.891 C92.395,14.1 90.386,15.349 88.435,16.627 C86.472,17.912 84.553,19.193 82.731,20.482 C80.907,21.753 79.202,22.998 77.645,24.14 C76.11,25.279 74.72,26.34 73.579,27.23 C71.286,29.039 69.908,30.14 69.908,30.14 C67.352,32.261 66.561,35.02 68.18,36.302 C68.18,36.302 70.711,38.286 73.472,40.478 C76.235,42.673 79.243,45.095 79.243,45.095 C80.295,45.947 81.861,46.244 83.545,46.007 C85.213,45.775 86.997,45.019 88.475,43.812 C88.475,43.812 90.041,42.528 92.659,40.478 C93.97,39.45 95.529,38.263 97.263,36.959 C99.007,35.696 100.919,34.293 102.935,32.879 C104.948,31.458 107.057,30.027 109.17,28.622 C111.29,27.23 113.425,25.875 115.5,24.581 C117.57,23.289 119.597,22.085 121.506,20.968 C123.419,19.851 125.221,18.828 126.86,17.92 C130.132,16.129 132.865,14.675 134.746,13.71 C136.624,12.738 137.723,12.187 137.723,12.187 C139.707,11.199 139.355,9.314 137.009,7.98" id="Fill-23" fill="#EE9951" sketch:type="MSShapeGroup"></path>
    </g>
</svg>